REM DIRINDEX 1\2,1\4,1\3\5,1\3\6,1\3\7
REM DIRNAME cjc083,folder01,folder02,folder03,folder04,folder05,folder06
TITLE ""
FILE "CD1Track26.mp3" MP3
  TRACK 01 AUDIO
    TITLE "0:"
    INDEX 01 00:00:00
  TRACK 02 AUDIO
    TITLE "5:cjc083_0544"
    INDEX 01 00:00:27
  TRACK 03 AUDIO
    TITLE "0:"
    INDEX 01 00:01:36
  TRACK 04 AUDIO
    TITLE "6:cjc083_0545"
    INDEX 01 00:02:12
  TRACK 05 AUDIO
    TITLE "0:"
    INDEX 01 00:03:12
  TRACK 06 AUDIO
    TITLE "5:cjc083_0546"
    INDEX 01 00:03:57
  TRACK 07 AUDIO
    TITLE "0:"
    INDEX 01 00:04:66
  TRACK 08 AUDIO
    TITLE "6:cjc083_0547"
    INDEX 01 00:05:42
  TRACK 09 AUDIO
    TITLE "0:"
    INDEX 01 00:06:39
  TRACK 10 AUDIO
    TITLE "5:cjc083_0548"
    INDEX 01 00:07:02
  TRACK 11 AUDIO
    TITLE "0:"
    INDEX 01 00:08:17
  TRACK 12 AUDIO
    TITLE "6:cjc083_0549"
    INDEX 01 00:08:58
  TRACK 13 AUDIO
    TITLE "0:"
    INDEX 01 00:10:33
  TRACK 14 AUDIO
    TITLE "5:cjc083_0550"
    INDEX 01 00:10:74
  TRACK 15 AUDIO
    TITLE "0:"
    INDEX 01 00:12:12
  TRACK 16 AUDIO
    TITLE "6:cjc083_0551"
    INDEX 01 00:12:54
  TRACK 17 AUDIO
    TITLE "0:"
    INDEX 01 00:14:41
  TRACK 18 AUDIO
    TITLE "5:cjc083_0552"
    INDEX 01 00:15:09
  TRACK 19 AUDIO
    TITLE "0:"
    INDEX 01 00:16:14
  TRACK 20 AUDIO
    TITLE "6:cjc083_0553"
    INDEX 01 00:16:55
  TRACK 21 AUDIO
    TITLE "0:"
    INDEX 01 00:19:03
  TRACK 22 AUDIO
    TITLE "5:cjc083_0554"
    INDEX 01 00:19:50
  TRACK 23 AUDIO
    TITLE "0:"
    INDEX 01 00:20:65
  TRACK 24 AUDIO
    TITLE "6:cjc083_0555"
    INDEX 01 00:21:33
  TRACK 25 AUDIO
    TITLE "0:"
    INDEX 01 00:24:47
  TRACK 26 AUDIO
    TITLE "5:cjc083_0556"
    INDEX 01 00:25:19
  TRACK 27 AUDIO
    TITLE "0:"
    INDEX 01 00:26:48
  TRACK 28 AUDIO
    TITLE "6:cjc083_0557"
    INDEX 01 00:27:16
  TRACK 29 AUDIO
    TITLE "0:"
    INDEX 01 00:28:31
  TRACK 30 AUDIO
    TITLE "5:cjc083_0558"
    INDEX 01 00:28:74
  TRACK 31 AUDIO
    TITLE "0:"
    INDEX 01 00:30:12
  TRACK 32 AUDIO
    TITLE "6:cjc083_0559"
    INDEX 01 00:30:54
  TRACK 33 AUDIO
    TITLE "0:"
    INDEX 01 00:32:23
  TRACK 34 AUDIO
    TITLE "5:cjc083_0560"
    INDEX 01 00:32:64
  TRACK 35 AUDIO
    TITLE "0:"
    INDEX 01 00:34:16
  TRACK 36 AUDIO
    TITLE "6:cjc083_0561"
    INDEX 01 00:34:57
  TRACK 37 AUDIO
    TITLE "0:"
    INDEX 01 00:36:44
  TRACK 38 AUDIO
    TITLE "5:cjc083_0562"
    INDEX 01 00:37:08
  TRACK 39 AUDIO
    TITLE "0:"
    INDEX 01 00:38:31
  TRACK 40 AUDIO
    TITLE "6:cjc083_0563"
    INDEX 01 00:38:73
  TRACK 41 AUDIO
    TITLE "0:"
    INDEX 01 00:40:11
  TRACK 42 AUDIO
    TITLE "5:cjc083_0564"
    INDEX 01 00:40:52
  TRACK 43 AUDIO
    TITLE "0:"
    INDEX 01 00:41:55
  TRACK 44 AUDIO
    TITLE "6:cjc083_0565"
    INDEX 01 00:42:25
  TRACK 45 AUDIO
    TITLE "0:"
    INDEX 01 00:44:18
  TRACK 46 AUDIO
    TITLE "5:cjc083_0566"
    INDEX 01 00:44:61
  TRACK 47 AUDIO
    TITLE "0:"
    INDEX 01 00:46:09
  TRACK 48 AUDIO
    TITLE "6:cjc083_0567"
    INDEX 01 00:46:49
  TRACK 49 AUDIO
    TITLE "0:"
    INDEX 01 00:48:40
  TRACK 50 AUDIO
    TITLE "5:cjc083_0568"
    INDEX 01 00:49:08
  TRACK 51 AUDIO
    TITLE "0:"
    INDEX 01 00:50:25
  TRACK 52 AUDIO
    TITLE "6:cjc083_0569"
    INDEX 01 00:50:62
  TRACK 53 AUDIO
    TITLE "0:"
    INDEX 01 00:51:60
  TRACK 54 AUDIO
    TITLE "5:cjc083_0570"
    INDEX 01 00:52:30
  TRACK 55 AUDIO
    TITLE "0:"
    INDEX 01 00:53:68
  TRACK 56 AUDIO
    TITLE "6:cjc083_0571"
    INDEX 01 00:54:42
  TRACK 57 AUDIO
    TITLE "0:"
    INDEX 01 00:56:24
  TRACK 58 AUDIO
    TITLE "7:cjc083_0572"
    INDEX 01 00:57:60
  TRACK 59 AUDIO
    TITLE "0:"
    INDEX 01 01:08:48
